<svg width="32" height="32" viewBox="0 0 32 32" fill="none" xmlns="http://www.w3.org/2000/svg">
<path d="M25.9734 23.6864C24.688 21.4305 22.6809 19.6727 20.2752 18.6961C21.4716 17.7988 22.3553 16.5479 22.8011 15.1205C23.247 13.6931 23.2325 12.1616 22.7596 10.743C22.2867 9.3243 21.3794 8.09038 20.1663 7.21599C18.9531 6.34161 17.4956 5.87109 16.0002 5.87109C14.5048 5.87109 13.0473 6.34161 11.8342 7.21599C10.621 8.09038 9.71375 9.3243 9.24086 10.743C8.76797 12.1616 8.75343 13.6931 9.19932 15.1205C9.6452 16.5479 10.5289 17.7988 11.7252 18.6961C9.31953 19.6727 7.31245 21.4305 6.0271 23.6864C5.94745 23.8145 5.89437 23.9572 5.87101 24.1062C5.84764 24.2552 5.85447 24.4074 5.89109 24.5537C5.92771 24.7 5.99337 24.8374 6.08416 24.9578C6.17496 25.0783 6.28904 25.1792 6.41963 25.2546C6.55021 25.3301 6.69463 25.3785 6.8443 25.397C6.99397 25.4155 7.14584 25.4038 7.29087 25.3624C7.4359 25.3211 7.57114 25.251 7.68854 25.1563C7.80595 25.0617 7.90312 24.9444 7.97429 24.8114C9.67304 21.8752 12.673 20.1239 16.0002 20.1239C19.3274 20.1239 22.3274 21.8761 24.0262 24.8114C24.1804 25.0594 24.425 25.2377 24.7083 25.3086C24.9916 25.3795 25.2914 25.3375 25.5443 25.1914C25.7972 25.0453 25.9833 24.8066 26.0634 24.5257C26.1434 24.2449 26.1112 23.9439 25.9734 23.6864ZM11.1252 12.9989C11.1252 12.0347 11.4111 11.0922 11.9468 10.2905C12.4825 9.48881 13.2439 8.86397 14.1346 8.49499C15.0254 8.12602 16.0056 8.02947 16.9513 8.21758C17.8969 8.40568 18.7656 8.86998 19.4474 9.55176C20.1292 10.2335 20.5935 11.1022 20.7816 12.0478C20.9697 12.9935 20.8731 13.9737 20.5041 14.8645C20.1352 15.7553 19.5103 16.5166 18.7086 17.0523C17.9069 17.588 16.9644 17.8739 16.0002 17.8739C14.7078 17.8724 13.4686 17.3583 12.5547 16.4444C11.6408 15.5305 11.1267 14.2914 11.1252 12.9989Z" fill="#2C2A27"/>
</svg>
