<svg width="24" height="24" viewBox="0 0 24 24" fill="none" xmlns="http://www.w3.org/2000/svg">
<path fill-rule="evenodd" clip-rule="evenodd" d="M10.6516 2.55781C10.9892 2.22064 11.441 2.02224 11.9177 2.00176C12.3944 1.98128 12.8614 2.1402 13.2267 2.44717L13.3488 2.55876L15.1609 4.3699H17.7226C18.2037 4.36999 18.667 4.55185 19.0196 4.87904C19.3723 5.20623 19.5883 5.6546 19.6244 6.13431L19.6301 6.27737V8.8391L21.4422 10.6512C21.7796 10.9889 21.9782 11.4408 21.9987 11.9177C22.0192 12.3946 21.8601 12.8619 21.5528 13.2272L21.4412 13.3484L19.6291 15.1605V17.7222C19.6293 18.2034 19.4475 18.6669 19.1203 19.0198C18.7931 19.3727 18.3446 19.5888 17.8647 19.6249L17.7226 19.6297H15.1618L13.3498 21.4418C13.0121 21.7792 12.5602 21.9778 12.0833 21.9982C11.6063 22.0187 11.1391 21.8596 10.7737 21.5524L10.6526 21.4418L8.84049 19.6297H6.27781C5.79658 19.6298 5.33307 19.4481 4.98021 19.1208C4.62734 18.7936 4.4112 18.3451 4.37511 17.8653L4.37034 17.7222V15.1605L2.55824 13.3484C2.2208 13.0107 2.02224 12.5588 2.00176 12.0819C1.98128 11.6049 2.14036 11.1377 2.44761 10.7723L2.55824 10.6512L4.37034 8.8391V6.27737C4.37043 5.7963 4.55228 5.33304 4.87948 4.98037C5.20667 4.62771 5.65504 4.41171 6.13475 4.37563L6.27781 4.3699H8.83954L10.6516 2.55781ZM14.9368 9.12236L10.8891 13.17L9.20291 11.4838C9.02395 11.305 8.78128 11.2046 8.52829 11.2047C8.27529 11.2047 8.03269 11.3053 7.85386 11.4843C7.67502 11.6632 7.5746 11.9059 7.57469 12.1589C7.57478 12.4119 7.67537 12.6545 7.85433 12.8333L10.1471 15.1261C10.2445 15.2236 10.3602 15.3009 10.4875 15.3537C10.6148 15.4064 10.7513 15.4336 10.8891 15.4336C11.0269 15.4336 11.1634 15.4064 11.2907 15.3537C11.418 15.3009 11.5337 15.2236 11.6311 15.1261L16.2853 10.4709C16.4591 10.2911 16.5552 10.0502 16.553 9.80009C16.5509 9.55002 16.4506 9.31081 16.2737 9.13398C16.0969 8.95715 15.8577 8.85685 15.6076 8.85467C15.3576 8.8525 15.1166 8.94863 14.9368 9.12236Z" fill="#FFC001"/>
</svg>
