<svg width="32" height="32" viewBox="0 0 32 32" fill="none" xmlns="http://www.w3.org/2000/svg">
<g clip-path="url(#clip0_6722_17321)">
<path d="M28.8033 4.11328H3.19751V24.5206H28.8033V4.11328Z" fill="white"/>
<path d="M29.4139 25.1303H2.58606V3.5H29.4148V25.1303H29.4139ZM3.80807 23.9073H28.191V4.72295H3.80901V23.9073H3.80807Z" fill="#040000"/>
<path d="M8.41577 8.24512H23.5842V16.0438H17.9896L15.9501 17.564L14.0639 16.0438H8.41577V8.24512Z" fill="white"/>
<path d="M15.9361 18.3374L13.8486 16.6554H7.8053V7.63281H24.1966V16.6554H18.1938L15.937 18.3374H15.9361ZM9.02731 15.4324H14.2794L15.9652 16.7909L17.7874 15.4324H22.9727V8.85577H9.02731V15.4324Z" fill="#040000"/>
<path d="M13.429 11.2939H11.7479V12.975H13.429V11.2939Z" fill="#E99525"/>
<path d="M16.7911 11.2939H15.11V12.975H16.7911V11.2939Z" fill="#E99525"/>
<path d="M20.1533 11.2939H18.4722V12.975H20.1533V11.2939Z" fill="#E99525"/>
<path d="M28.8033 20.3027H3.19751V21.5257H28.8033V20.3027Z" fill="#040000"/>
<path d="M22.445 27.2754H9.55505V28.4983H22.445V27.2754Z" fill="#040000"/>
<path d="M19.1985 24.5195H16.1138H15.8861H12.8005L11.634 27.8874H15.8861H16.1138H20.3659L19.1985 24.5195Z" fill="white"/>
<path d="M21.2248 28.499H10.7742L12.365 23.9082H19.6331L21.2238 28.499H21.2248ZM12.4929 27.276H19.507L18.7638 25.1312H13.237L12.4938 27.276H12.4929Z" fill="#040000"/>
</g>
<defs>
<clipPath id="clip0_6722_17321">
<rect width="32" height="32" fill="white"/>
</clipPath>
</defs>
</svg>
