<svg width="32" height="32" viewBox="0 0 32 32" fill="none" xmlns="http://www.w3.org/2000/svg">
<g clip-path="url(#clip0_6722_17319)">
<path d="M23.5183 13.6699H8.48254V29.7499H23.5183V13.6699Z" fill="white"/>
<path d="M24.1289 30.3615H7.87109V13.0586H24.1298V30.3615H24.1289ZM9.09311 29.1386H22.9059V14.2815H9.09405V29.1386H9.09311Z" fill="#040000"/>
<path d="M28.6642 13.6699H23.5175V21.2381H28.6642V13.6699Z" fill="#E99525"/>
<path d="M29.2756 21.8498H22.9059V13.0586H29.2756V21.8498ZM24.1288 20.6268H28.0526V14.2815H24.1288V20.6268Z" fill="#040000"/>
<path d="M8.48257 13.6699H3.33582V21.2381H8.48257V13.6699Z" fill="#E99525"/>
<path d="M9.09407 21.8498H2.72437V13.0586H9.09407V21.8498ZM3.94732 20.6268H7.87112V14.2815H3.94732V20.6268Z" fill="#040000"/>
<path d="M5.19191 13.6357C5.19191 13.6357 4.64252 8.93388 8.01223 5.44564C9.69708 3.70152 12.8542 2.24902 16.0103 2.24902C19.1665 2.24902 22.3236 3.70152 24.0085 5.44564C27.3782 8.93388 26.8288 13.6357 26.8288 13.6357L23.539 13.6686C23.539 13.6686 23.921 10.3967 21.5767 7.96963C20.4045 6.75608 18.2079 5.74573 16.0113 5.74573C13.8147 5.74573 11.6181 6.75608 10.4459 7.96963C8.10066 10.3967 8.48354 13.6686 8.48354 13.6686L5.19379 13.6357H5.19191Z" fill="white"/>
<path d="M22.8504 14.2878L22.9313 13.5982C22.9342 13.57 23.2418 10.5747 21.1364 8.39502C20.1881 7.41384 18.1797 6.35739 16.0103 6.35739C13.841 6.35739 11.8326 7.41384 10.8843 8.39502C8.77893 10.5747 9.08655 13.57 9.08937 13.6001L9.16651 14.2868L8.47601 14.2812L4.64723 14.2426L4.5842 13.7073C4.56068 13.5032 4.04139 8.6763 7.57197 5.02155C9.52681 2.99803 12.9172 1.63867 16.0103 1.63867C19.1035 1.63867 22.4939 2.99803 24.4487 5.02155C27.9793 8.6763 27.46 13.5032 27.4365 13.7073L27.3735 14.2426L22.8504 14.2887V14.2878ZM5.77234 13.03L7.84666 13.0507C7.85701 11.8889 8.13076 9.48439 10.0047 7.5446C11.3979 6.10245 13.8109 5.1335 16.0103 5.1335C18.2098 5.1335 20.6228 6.10245 22.016 7.5446C23.8899 9.48439 24.1637 11.888 24.174 13.0507L26.2474 13.03C26.2643 11.7516 26.0461 8.43453 23.5691 5.87103C21.858 4.09869 18.7498 2.86163 16.0103 2.86163C13.2709 2.86163 10.1637 4.09963 8.45155 5.87103C5.96519 8.44582 5.75165 11.7544 5.7714 13.03H5.77234Z" fill="#040000"/>
<path d="M18.2878 17.1445H13.8193V18.3675H18.2878V17.1445Z" fill="#040000"/>
<path d="M18.2878 20.5264H13.8193V21.7493H18.2878V20.5264Z" fill="#040000"/>
</g>
<defs>
<clipPath id="clip0_6722_17319">
<rect width="32" height="32" fill="white"/>
</clipPath>
</defs>
</svg>
