<svg width="32" height="32" viewBox="0 0 32 32" fill="none" xmlns="http://www.w3.org/2000/svg">
<path d="M14.0769 5.5C9.61613 5.5 6 9.11613 6 13.5769C6 18.0376 9.61613 21.6537 14.0769 21.6537C16.0307 21.6537 17.8214 20.9607 19.2184 19.806L24.6868 25.2752C24.8311 25.4195 25.0268 25.5005 25.2309 25.5004C25.4349 25.5003 25.6306 25.4192 25.7748 25.2748C25.9191 25.1305 26.0001 24.9348 26 24.7307C25.9999 24.5267 25.9188 24.331 25.7745 24.1868L20.306 18.7176C21.5026 17.2719 22.1562 15.4535 22.1537 13.5769C22.1537 9.11613 18.5376 5.5 14.0769 5.5ZM7.53845 13.5769C7.53845 11.8428 8.22732 10.1797 9.45351 8.95351C10.6797 7.72732 12.3428 7.03845 14.0769 7.03845C15.811 7.03845 17.474 7.72732 18.7002 8.95351C19.9264 10.1797 20.6153 11.8428 20.6153 13.5769C20.6153 15.311 19.9264 16.974 18.7002 18.2002C17.474 19.4264 15.811 20.1153 14.0769 20.1153C12.3428 20.1153 10.6797 19.4264 9.45351 18.2002C8.22732 16.974 7.53845 15.311 7.53845 13.5769Z" fill="#2C2A27" stroke="#2C2A27" stroke-width="0.5"/>
</svg>
