<svg width="32" height="32" viewBox="0 0 32 32" fill="none" xmlns="http://www.w3.org/2000/svg">
<g clip-path="url(#clip0_6722_17322)">
<path d="M3.38477 5.74512H28.6152V25.35H25.2361H3.38477V5.74512Z" fill="white"/>
<path d="M29.2267 25.9616H2.77325V5.13379H29.2276V25.9616H29.2267ZM3.99527 24.7387H28.0037V6.35674H3.99621V24.7387H3.99527Z" fill="#040000"/>
<path d="M25.7093 8.78809H6.05365V10.011H25.7093V8.78809Z" fill="#040000"/>
<path d="M25.7102 12.001H21.682V13.2239H25.7102V12.001Z" fill="#040000"/>
<path d="M18.7075 12.001H6.05365V13.2239H18.7075V12.001Z" fill="#040000"/>
<path d="M16.0179 15.2139H6.05365V16.4368H16.0179V15.2139Z" fill="#040000"/>
<path d="M10.7206 21.2949H6.05365V22.5179H10.7206V21.2949Z" fill="#040000"/>
<path d="M24.7451 22.1846V27.8055L22.635 26.8647L20.524 27.8055V22.1846" fill="white"/>
<path d="M25.3566 28.7481L22.635 27.5345L19.9125 28.7481V22.1846H21.1355V26.8638L22.635 26.1959L24.1336 26.8638V22.1846H25.3566V28.7481Z" fill="#040000"/>
<path d="M22.635 23.0695C24.6026 23.0695 26.1976 21.4744 26.1976 19.5069C26.1976 17.5393 24.6026 15.9443 22.635 15.9443C20.6675 15.9443 19.0724 17.5393 19.0724 19.5069C19.0724 21.4744 20.6675 23.0695 22.635 23.0695Z" fill="#E99525"/>
<path d="M22.635 23.6821C20.333 23.6821 18.4609 21.8091 18.4609 19.508C18.4609 17.207 20.3339 15.334 22.635 15.334C24.936 15.334 26.809 17.207 26.809 19.508C26.809 21.8091 24.936 23.6821 22.635 23.6821ZM22.635 16.5569C21.0075 16.5569 19.6839 17.8806 19.6839 19.508C19.6839 21.1355 21.0075 22.4591 22.635 22.4591C24.2624 22.4591 25.5861 21.1355 25.5861 19.508C25.5861 17.8806 24.2624 16.5569 22.635 16.5569Z" fill="#040000"/>
</g>
<defs>
<clipPath id="clip0_6722_17322">
<rect width="32" height="32" fill="white"/>
</clipPath>
</defs>
</svg>
