<svg width="20" height="20" viewBox="0 0 20 20" fill="none" xmlns="http://www.w3.org/2000/svg">
<path d="M15 8.33301C15.6415 8.33297 16.2694 8.51806 16.8083 8.86607C17.3473 9.21407 17.7743 9.71021 18.0383 10.2949C18.3022 10.8796 18.3918 11.5281 18.2963 12.1625C18.2009 12.7969 17.9243 13.3902 17.5 13.8713V17.3647C17.5 17.5209 17.4601 17.6746 17.384 17.8111C17.3079 17.9476 17.1982 18.0624 17.0652 18.1446C16.9323 18.2267 16.7806 18.2735 16.6245 18.2806C16.4684 18.2876 16.3131 18.2546 16.1733 18.1847L15 17.598L13.8266 18.1847C13.6869 18.2546 13.5315 18.2876 13.3754 18.2806C13.2193 18.2735 13.0676 18.2267 12.9347 18.1446C12.8017 18.0624 12.692 17.9476 12.6159 17.8111C12.5399 17.6746 12.4999 17.5209 12.5 17.3647V13.8713C12.0756 13.3902 11.7991 12.7969 11.7036 12.1625C11.6081 11.5281 11.6977 10.8796 11.9616 10.2949C12.2256 9.71021 12.6526 9.21407 13.1916 8.86607C13.7305 8.51806 14.3584 8.33297 15 8.33301ZM16.6666 3.33301C17.1087 3.33301 17.5326 3.5086 17.8451 3.82116C18.1577 4.13372 18.3333 4.55765 18.3333 4.99967V6.66634C18.3333 6.88736 18.2455 7.09932 18.0892 7.2556C17.9329 7.41188 17.721 7.49967 17.5 7.49967C17.2789 7.49967 17.067 7.41188 16.9107 7.2556C16.7544 7.09932 16.6666 6.88736 16.6666 6.66634V4.99967H3.33329V14.9997H9.99996C10.221 14.9997 10.4329 15.0875 10.5892 15.2438C10.7455 15.4 10.8333 15.612 10.8333 15.833C10.8333 16.054 10.7455 16.266 10.5892 16.4223C10.4329 16.5785 10.221 16.6663 9.99996 16.6663H3.33329C2.89127 16.6663 2.46734 16.4907 2.15478 16.1782C1.84222 15.8656 1.66663 15.4417 1.66663 14.9997V4.99967C1.66663 4.55765 1.84222 4.13372 2.15478 3.82116C2.46734 3.5086 2.89127 3.33301 3.33329 3.33301H16.6666ZM15.8333 14.8947C15.2867 15.0358 14.7132 15.0358 14.1666 14.8947V16.1513L14.6275 15.9213C14.7431 15.8635 14.8707 15.8335 15 15.8335C15.1293 15.8335 15.2568 15.8635 15.3725 15.9213L15.8333 16.1513V14.8947ZM15 9.99967C14.5579 9.99967 14.134 10.1753 13.8214 10.4878C13.5089 10.8004 13.3333 11.2243 13.3333 11.6663C13.3333 12.1084 13.5089 12.5323 13.8214 12.8449C14.134 13.1574 14.5579 13.333 15 13.333C15.442 13.333 15.8659 13.1574 16.1785 12.8449C16.491 12.5323 16.6666 12.1084 16.6666 11.6663C16.6666 11.2243 16.491 10.8004 16.1785 10.4878C15.8659 10.1753 15.442 9.99967 15 9.99967ZM7.49996 10.833C7.71236 10.8332 7.91665 10.9146 8.0711 11.0604C8.22555 11.2062 8.31849 11.4055 8.33094 11.6175C8.34338 11.8295 8.2744 12.0383 8.13807 12.2012C8.00175 12.3641 7.80837 12.4688 7.59746 12.4938L7.49996 12.4997H5.83329C5.62089 12.4994 5.4166 12.4181 5.26215 12.2723C5.10771 12.1265 5.01476 11.9272 5.00232 11.7152C4.98987 11.5031 5.05885 11.2944 5.19518 11.1315C5.33151 10.9686 5.52488 10.8639 5.73579 10.8388L5.83329 10.833H7.49996ZM10.8333 7.49967C11.0543 7.49967 11.2663 7.58747 11.4225 7.74375C11.5788 7.90003 11.6666 8.11199 11.6666 8.33301C11.6666 8.55402 11.5788 8.76598 11.4225 8.92226C11.2663 9.07854 11.0543 9.16634 10.8333 9.16634H5.83329C5.61228 9.16634 5.40032 9.07854 5.24404 8.92226C5.08776 8.76598 4.99996 8.55402 4.99996 8.33301C4.99996 8.11199 5.08776 7.90003 5.24404 7.74375C5.40032 7.58747 5.61228 7.49967 5.83329 7.49967H10.8333Z" fill="#5F7698"/>
</svg>
