<svg width="37" height="36" viewBox="0 0 37 36" fill="none" xmlns="http://www.w3.org/2000/svg">
<g clip-path="url(#clip0_6722_17302)">
<path d="M18.12 36C28.0611 36 36.12 27.9411 36.12 18C36.12 8.05888 28.0611 0 18.12 0C8.17887 0 0.119995 8.05888 0.119995 18C0.119995 27.9411 8.17887 36 18.12 36Z" fill="#D4D0CD"/>
<path d="M28.8748 19.4486V26.8696H24.5723V19.946C24.5723 18.2075 23.9511 17.0203 22.3933 17.0203C21.2044 17.0203 20.4982 17.8196 20.1863 18.5935C20.0731 18.8701 20.0439 19.2542 20.0439 19.6421V26.8693H15.741C15.741 26.8693 15.7988 15.1429 15.741 13.9291H20.0442V15.7628C20.0355 15.7773 20.0233 15.7914 20.0156 15.8052H20.0442V15.7628C20.616 14.883 21.6357 13.6252 23.9219 13.6252C26.7526 13.6252 28.8748 15.4747 28.8748 19.4486ZM11.2399 7.69141C9.7681 7.69141 8.80518 8.65754 8.80518 9.92689C8.80518 11.1693 9.74018 12.1633 11.1834 12.1633H11.2114C12.7121 12.1633 13.6451 11.1693 13.6451 9.92689C13.6166 8.65754 12.7121 7.69141 11.2399 7.69141ZM9.06091 26.8696H13.3621V13.9291H9.06091V26.8696Z" fill="#F6F5F5"/>
</g>
<defs>
<clipPath id="clip0_6722_17302">
<rect width="36" height="36" fill="white" transform="translate(0.119995)"/>
</clipPath>
</defs>
</svg>
