<svg width="32" height="32" viewBox="0 0 32 32" fill="none" xmlns="http://www.w3.org/2000/svg">
<g clip-path="url(#clip0_6722_17320)">
<path d="M29.301 5.28125H16.0132V26.7187H29.301V5.28125Z" fill="white"/>
<path d="M29.9126 27.3303H15.4017V4.66992H29.9126V27.3303ZM16.6247 26.1074H28.6896V5.89288H16.6247V26.1074Z" fill="#040000"/>
<path d="M26.1007 8.26758H16.0132V23.7332H26.1007V8.26758Z" fill="white"/>
<path d="M26.7122 24.3439H15.4017V7.65527H26.7122V24.3439ZM16.6247 23.1209H25.4892V8.87823H16.6247V23.1209Z" fill="#040000"/>
<path d="M22.8137 11.9238H18.6396V13.1468H22.8137V11.9238Z" fill="#E99525"/>
<path d="M22.8137 15.4502H18.6396V16.6731H22.8137V15.4502Z" fill="#E99525"/>
<path d="M22.8137 18.9775H18.6396V20.2005H22.8137V18.9775Z" fill="#E99525"/>
<path d="M2.69798 26.7188H15.9858L15.9858 5.28131H2.69798L2.69798 26.7188Z" fill="white"/>
<path d="M16.5983 27.3303H2.08752V4.66992H16.5983V27.3303ZM3.31048 26.1074H15.3754V5.89288H3.31048V26.1074Z" fill="#040000"/>
<path d="M5.89835 23.7324H15.9858L15.9858 8.26676L5.89835 8.26676L5.89835 23.7324Z" fill="white"/>
<path d="M16.5983 24.3439H5.28784V7.65527H16.5983V24.3439ZM6.5108 23.1209H15.3753V8.87823H6.5108V23.1209Z" fill="#040000"/>
<path d="M13.3603 18.8535H9.18628V20.0765H13.3603V18.8535Z" fill="#E99525"/>
<path d="M13.3603 15.3262H9.18628V16.5491H13.3603V15.3262Z" fill="#E99525"/>
<path d="M13.3603 11.7998H9.18628V13.0228H13.3603V11.7998Z" fill="#E99525"/>
</g>
<defs>
<clipPath id="clip0_6722_17320">
<rect width="32" height="32" fill="white"/>
</clipPath>
</defs>
</svg>
