<svg width="32" height="32" viewBox="0 0 32 32" fill="none" xmlns="http://www.w3.org/2000/svg">
<g clip-path="url(#clip0_6722_17318)">
<path d="M16 30.2541C23.8722 30.2541 30.254 23.8724 30.254 16.0001C30.254 8.12783 23.8722 1.74609 16 1.74609C8.1277 1.74609 1.74597 8.12783 1.74597 16.0001C1.74597 23.8724 8.1277 30.2541 16 30.2541Z" fill="white"/>
<path d="M16 30.8657C7.80338 30.8657 1.13452 24.1969 1.13452 16.0002C1.13452 7.80363 7.80338 1.13477 16 1.13477C24.1966 1.13477 30.8655 7.80363 30.8655 16.0002C30.8655 24.1969 24.1966 30.8657 16 30.8657ZM16 2.35772C8.47789 2.35772 2.35748 8.47813 2.35748 16.0002C2.35748 23.5223 8.47789 29.6428 16 29.6428C23.5221 29.6428 29.6425 23.5223 29.6425 16.0002C29.6425 8.47813 23.5221 2.35772 16 2.35772Z" fill="#040000"/>
<path d="M16 26.9401C22.0419 26.9401 26.9398 22.0422 26.9398 16.0003C26.9398 9.95846 22.0419 5.06055 16 5.06055C9.95809 5.06055 5.06018 9.95846 5.06018 16.0003C5.06018 22.0422 9.95809 26.9401 16 26.9401Z" fill="white"/>
<path d="M16 27.5508C9.63123 27.5508 4.44873 22.3692 4.44873 15.9995C4.44873 9.6298 9.63029 4.44824 16 4.44824C22.3697 4.44824 27.5513 9.6298 27.5513 15.9995C27.5513 22.3692 22.3697 27.5508 16 27.5508ZM16 5.67214C10.3048 5.67214 5.67168 10.3053 5.67168 16.0005C5.67168 21.6957 10.3048 26.3288 16 26.3288C21.6952 26.3288 26.3283 21.6957 26.3283 16.0005C26.3283 10.3053 21.6952 5.67214 16 5.67214Z" fill="#040000"/>
<path d="M15.0847 7.7666H16.9144V9.59821H15.0847V7.7666Z" fill="#E99525"/>
<path d="M9.52966 10.8248L10.8232 9.53125L12.1176 10.8257L10.8241 12.1192L9.52966 10.8248Z" fill="#E99525"/>
<path d="M7.76672 15.085H9.59833V16.9147H7.76672V15.085Z" fill="#E99525"/>
<path d="M9.52869 21.1734L10.8231 19.8789L12.1166 21.1724L10.8222 22.4669L9.52869 21.1734Z" fill="#E99525"/>
<path d="M15.0847 22.4014H16.9144V24.233H15.0847V22.4014Z" fill="#E99525"/>
<path d="M19.8749 21.1734L21.1684 19.8799L22.4628 21.1743L21.1693 22.4678L19.8749 21.1734Z" fill="#E99525"/>
<path d="M22.4017 15.085H24.2333V16.9147H22.4017V15.085Z" fill="#E99525"/>
<path d="M19.8759 10.8277L21.1703 9.5332L22.4638 10.8267L21.1694 12.1212L19.8759 10.8277Z" fill="#E99525"/>
<path d="M18.015 19.2449L15.1335 16.3634V12.4189H16.8269V15.6617L19.2126 18.0474L18.015 19.2449Z" fill="#040000"/>
</g>
<defs>
<clipPath id="clip0_6722_17318">
<rect width="32" height="32" fill="white"/>
</clipPath>
</defs>
</svg>
