<svg width="37" height="36" viewBox="0 0 37 36" fill="none" xmlns="http://www.w3.org/2000/svg">
<g clip-path="url(#clip0_6722_17297)">
<path d="M18.1202 35.9997C28.0612 35.9997 36.12 27.9409 36.12 17.9998C36.12 8.0588 28.0612 0 18.1202 0C8.17916 0 0.120361 8.0588 0.120361 17.9998C0.120361 27.9409 8.17916 35.9997 18.1202 35.9997Z" fill="#D4D0CD"/>
<path d="M29.1456 12.9356C28.3742 13.2776 27.5445 13.5089 26.6743 13.6123C27.5628 13.08 28.2446 12.2377 28.5664 11.2324C27.7351 11.7256 26.8139 12.0833 25.8343 12.2762C25.0494 11.4403 23.9312 10.918 22.693 10.918C20.3173 10.918 18.3906 12.8448 18.3906 15.2204C18.3906 15.5577 18.4287 15.8859 18.5025 16.201C14.9268 16.0216 11.7564 14.3089 9.63417 11.705C9.26389 12.3404 9.05148 13.08 9.05148 13.8683C9.05148 15.3607 9.81161 16.6781 10.9654 17.4495C10.2605 17.4273 9.59663 17.2339 9.01683 16.9107C9.01651 16.929 9.01651 16.9473 9.01651 16.9653C9.01651 19.0499 10.5002 20.7887 12.468 21.1837C12.1074 21.2825 11.7265 21.3348 11.3348 21.3348C11.0569 21.3348 10.7877 21.3082 10.5252 21.2581C11.0726 22.9671 12.6612 24.2111 14.5444 24.246C13.0716 25.4002 11.2167 26.0878 9.20036 26.0878C8.85383 26.0878 8.51051 26.0676 8.17456 26.0275C10.0776 27.2487 12.3397 27.9607 14.7693 27.9607C22.6831 27.9607 27.0109 21.4048 27.0109 15.7187C27.0109 15.5323 27.0067 15.3465 26.9984 15.1624C27.8397 14.5559 28.569 13.7984 29.1456 12.9356Z" fill="#F6F5F5"/>
</g>
<defs>
<clipPath id="clip0_6722_17297">
<rect width="36" height="36" fill="white" transform="translate(0.119995)"/>
</clipPath>
</defs>
</svg>
